<svg xmlns="http://www.w3.org/2000/svg" version="1.1" xmlns:xlink="http://www.w3.org/1999/xlink" xmlns:svgjs="http://svgjs.dev/svgjs" width="1000" height="356" viewBox="0 0 1000 356"><g transform="matrix(1,0,0,1,-0.6060505209618441,-0.6017444814715134)"><svg viewBox="0 0 396 141" data-background-color="#ffffff" preserveAspectRatio="xMidYMid meet" height="356" width="1000" xmlns="http://www.w3.org/2000/svg" xmlns:xlink="http://www.w3.org/1999/xlink"><g id="tight-bounds" transform="matrix(1,0,0,1,0.2399960063008848,0.23833138170641632)"><svg viewBox="0 0 395.52 140.52333723658714" height="140.52333723658714" width="395.52"><g><svg viewBox="0 0 565.7389125775844 200.99999999999997" height="140.52333723658714" width="395.52"><g><rect width="4.166795064241946" height="200.99999999999997" x="217.06944603676615" y="0" fill="#096a2e" opacity="1" stroke-width="0" stroke="transparent" fill-opacity="1" class="rect-o-0" data-fill-palette-color="primary" rx="1%" id="o-0" data-palette-color="#096a2e"></rect></g><g transform="matrix(1,0,0,1,232.14408158331685,0.4999999999999858)"><svg viewBox="0 0 333.5948309942676 200" height="200" width="333.5948309942676"><g id="textblocktransform"><svg viewBox="0 0 333.5948309942676 200" height="200" width="333.5948309942676" id="textblock"><g><svg viewBox="0 0 333.5948309942676 200" height="200" width="333.5948309942676"><g transform="matrix(1,0,0,1,0,0)"><svg width="333.5948309942676" viewBox="1.0999994277954102 -35.54999923706055 266.2099914550781 154.12001037597656" height="200" data-palette-color="#096a2e"><svg></svg><svg></svg><svg></svg><svg></svg><g class="wordmark-text-0" data-fill-palette-color="primary" id="text-0"><path xmlns="http://www.w3.org/2000/svg" d="M29.3-35.55v4.98h-11.09v30.57h-6.13v-30.57h-10.98v-4.98zM62.18-35.55v35.55h-6.15v-15.8h-15.89v15.8h-6.18v-35.55h6.18v14.8h15.89v-14.8zM90.26-20.75v4.88h-14.6v10.94h17.06v4.93h-23.24v-35.55h23.07v4.98h-16.89v9.82z" fill="#096a2e" fill-rule="nonzero" stroke="none" stroke-width="1" stroke-linecap="butt" stroke-linejoin="miter" stroke-miterlimit="10" stroke-dasharray="" stroke-dashoffset="0" font-family="none" font-weight="none" font-size="none" text-anchor="none" style="mix-blend-mode: normal" data-fill-palette-color="primary" opacity="1"></path><path xmlns="http://www.w3.org/2000/svg" d="M31.81 3.97v35.55h-6.18l-15.84-25.22v25.22h-6.18v-35.55h6.18l15.89 25.32v-25.32zM58.96 3.97h6.15v23.76c0 3.773-1.207 6.763-3.62 8.97-2.42 2.207-5.64 3.31-9.66 3.31v0c-4.067 0-7.297-1.087-9.69-3.26-2.393-2.173-3.59-5.19-3.59-9.05v0-23.73h6.15v23.78c0 2.38 0.603 4.197 1.81 5.45 1.207 1.253 2.98 1.88 5.32 1.88v0c4.753 0 7.13-2.507 7.13-7.52v0zM97.39 3.97v4.98h-11.09v30.57h-6.12v-30.57h-10.99v-4.98zM122.24 39.52l-7.13-13.7h-6.88v13.7h-6.18v-35.55h12.5c4.1 0 7.267 0.92 9.5 2.76 2.227 1.84 3.34 4.503 3.34 7.99v0c0 2.373-0.573 4.36-1.72 5.96-1.147 1.607-2.747 2.84-4.8 3.7v0l7.99 14.82v0.32zM108.23 8.95v11.92h6.35c2.08 0 3.707-0.527 4.88-1.58 1.173-1.047 1.76-2.483 1.76-4.31v0c0-1.9-0.543-3.373-1.63-4.42-1.08-1.04-2.693-1.577-4.84-1.61v0zM139.77 3.97v35.55h-6.15v-35.55zM172.34 3.97v4.98h-11.09v30.57h-6.12v-30.57h-10.99v-4.98zM183.52 3.97v35.55h-6.15v-35.55zM219.48 20.7v1.97c0 3.487-0.6 6.543-1.8 9.17-1.207 2.627-2.93 4.647-5.17 6.06-2.233 1.407-4.807 2.11-7.72 2.11v0c-2.887 0-5.457-0.703-7.71-2.11-2.253-1.413-3.993-3.42-5.22-6.02-1.233-2.607-1.857-5.61-1.87-9.01v0-2c0-3.467 0.613-6.527 1.84-9.18 1.233-2.653 2.967-4.683 5.2-6.09 2.24-1.413 4.81-2.12 7.71-2.12 2.893 0 5.46 0.697 7.7 2.09 2.24 1.393 3.97 3.397 5.19 6.01 1.22 2.613 1.837 5.653 1.85 9.12zM213.31 22.67v-1.85c0-3.94-0.747-6.96-2.24-9.06-1.487-2.1-3.597-3.15-6.33-3.15v0c-2.673 0-4.763 1.047-6.27 3.14-1.5 2.093-2.267 5.05-2.3 8.87v0 2.05c0 3.907 0.76 6.927 2.28 9.06 1.52 2.133 3.633 3.2 6.34 3.2v0c2.733 0 4.837-1.04 6.31-3.12 1.473-2.087 2.21-5.133 2.21-9.14zM253.83 3.97v35.55h-6.17l-15.85-25.22v25.22h-6.18v-35.55h6.18l15.9 25.32v-25.32z" fill="#096a2e" fill-rule="nonzero" stroke="none" stroke-width="1" stroke-linecap="butt" stroke-linejoin="miter" stroke-miterlimit="10" stroke-dasharray="" stroke-dashoffset="0" font-family="none" font-weight="none" font-size="none" text-anchor="none" style="mix-blend-mode: normal" data-fill-palette-color="primary" opacity="1"></path><path xmlns="http://www.w3.org/2000/svg" d="M24.39 58.3v4.88h-14.6v10.94h17.07v4.93h-23.25v-35.55h23.07v4.98h-16.89v9.82zM42.11 79.05h-10.23v-35.55h10.5c3.14 0 5.927 0.7 8.36 2.1 2.433 1.4 4.32 3.387 5.66 5.96 1.333 2.573 2 5.52 2 8.84v0 1.78c0 3.367-0.673 6.33-2.02 8.89-1.34 2.553-3.25 4.52-5.73 5.9-2.487 1.387-5.333 2.08-8.54 2.08zM42.38 48.48h-4.32v25.64h4.03c3.24 0 5.727-1.013 7.46-3.04 1.733-2.027 2.617-4.937 2.65-8.73v0-1.98c0-3.853-0.84-6.797-2.52-8.83-1.673-2.04-4.107-3.06-7.3-3.06zM84.4 43.5h6.15v23.76c0 3.773-1.207 6.763-3.62 8.97-2.42 2.207-5.64 3.31-9.66 3.31v0c-4.067 0-7.297-1.087-9.69-3.26-2.393-2.173-3.59-5.19-3.59-9.05v0-23.73h6.15v23.78c0 2.38 0.603 4.197 1.81 5.45 1.2 1.253 2.973 1.88 5.32 1.88v0c4.753 0 7.13-2.507 7.13-7.52v0zM118.12 67.48h6.15c-0.36 3.793-1.76 6.75-4.2 8.87-2.44 2.127-5.687 3.19-9.74 3.19v0c-2.833 0-5.33-0.673-7.49-2.02-2.153-1.34-3.817-3.247-4.99-5.72-1.173-2.473-1.783-5.347-1.83-8.62v0-3.32c0-3.353 0.593-6.307 1.78-8.86 1.187-2.553 2.893-4.523 5.12-5.91 2.22-1.387 4.787-2.08 7.7-2.08v0c3.92 0 7.077 1.067 9.47 3.2 2.393 2.133 3.787 5.147 4.18 9.04v0h-6.15c-0.293-2.56-1.04-4.403-2.24-5.53-1.193-1.133-2.947-1.7-5.26-1.7v0c-2.687 0-4.75 0.98-6.19 2.94-1.44 1.96-2.177 4.837-2.21 8.63v0 3.15c0 3.84 0.687 6.77 2.06 8.79 1.38 2.02 3.397 3.03 6.05 3.03v0c2.42 0 4.243-0.547 5.47-1.64 1.22-1.087 1.993-2.9 2.32-5.44zM152.59 79.05l-2.91-8.28h-13.77l-2.88 8.28h-6.42l13.43-35.55h5.54l13.45 35.55zM142.8 51.05l-5.15 14.74h10.3zM185.82 43.5v4.98h-11.09v30.57h-6.13v-30.57h-10.98v-4.98zM197 43.5v35.55h-6.16v-35.55zM232.96 60.23v1.97c0 3.487-0.603 6.543-1.81 9.17-1.2 2.627-2.92 4.647-5.16 6.06-2.24 1.407-4.817 2.11-7.73 2.11v0c-2.88 0-5.447-0.703-7.7-2.11-2.253-1.413-3.997-3.42-5.23-6.02-1.227-2.607-1.847-5.61-1.86-9.01v0-2c0-3.467 0.613-6.527 1.84-9.18 1.227-2.653 2.96-4.683 5.2-6.09 2.24-1.413 4.807-2.12 7.7-2.12 2.9 0 5.47 0.697 7.71 2.09 2.233 1.393 3.96 3.397 5.18 6.01 1.22 2.613 1.84 5.653 1.86 9.12zM226.78 62.2v-1.85c0-3.94-0.743-6.96-2.23-9.06-1.493-2.1-3.607-3.15-6.34-3.15v0c-2.667 0-4.753 1.047-6.26 3.14-1.507 2.093-2.277 5.05-2.31 8.87v0 2.05c0 3.907 0.763 6.927 2.29 9.06 1.52 2.133 3.63 3.2 6.33 3.2v0c2.733 0 4.837-1.04 6.31-3.12 1.473-2.087 2.21-5.133 2.21-9.14zM267.31 43.5v35.55h-6.18l-15.84-25.22v25.22h-6.18v-35.55h6.18l15.89 25.32v-25.32z" fill="#096a2e" fill-rule="nonzero" stroke="none" stroke-width="1" stroke-linecap="butt" stroke-linejoin="miter" stroke-miterlimit="10" stroke-dasharray="" stroke-dashoffset="0" font-family="none" font-weight="none" font-size="none" text-anchor="none" style="mix-blend-mode: normal" data-fill-palette-color="primary" opacity="1"></path><path xmlns="http://www.w3.org/2000/svg" d="M10.13 83.02v35.55h-6.15v-35.55zM45.92 83.02v35.55h-6.17l-15.85-25.22v25.22h-6.18v-35.55h6.18l15.89 25.32v-25.32zM59.74 83.02v35.55h-6.15v-35.55zM92.31 83.02v4.98h-11.08v30.57h-6.13v-30.57h-10.99v-4.98zM103.49 83.02v35.55h-6.15v-35.55zM134.33 118.57l-2.91-8.28h-13.77l-2.88 8.28h-6.42l13.43-35.55h5.54l13.45 35.55zM124.54 90.57l-5.16 14.74h10.31zM167.55 83.02v4.98h-11.08v30.57h-6.13v-30.57h-10.98v-4.98zM178.74 83.02v35.55h-6.16v-35.55zM189.92 83.02l8.93 27.81 9.04-27.81h6.78l-12.79 35.55h-5.98l-12.75-35.55zM239.45 97.82v4.88h-14.6v10.94h17.07v4.93h-23.24v-35.55h23.07v4.98h-16.9v9.82z" fill="#096a2e" fill-rule="nonzero" stroke="none" stroke-width="1" stroke-linecap="butt" stroke-linejoin="miter" stroke-miterlimit="10" stroke-dasharray="" stroke-dashoffset="0" font-family="none" font-weight="none" font-size="none" text-anchor="none" style="mix-blend-mode: normal" data-fill-palette-color="primary" opacity="1"></path></g></svg></g></svg></g></svg></g></svg></g><g transform="matrix(1,0,0,1,0,20.432829461541644)"><svg viewBox="0 0 206.1616055544574 160.13434107691668" height="160.13434107691668" width="206.1616055544574"><g><svg xmlns="http://www.w3.org/2000/svg" xmlns:xlink="http://www.w3.org/1999/xlink" version="1.1" x="0" y="0" viewBox="0 11.972001075744629 100.45550537109375 78.02799224853516" enable-background="new 0 0 100 100" xml:space="preserve" width="206.1616055544574" height="160.13434107691668" class="icon-icon-0" data-fill-palette-color="accent" id="icon-0"><path d="M57.226 30.979c8.744-3.337 11.479-10.642 12.905-17.657l0.233-1.144-1.162-0.108c-0.63-0.059-1.262-0.089-1.882-0.089-5.054 0-9.665 1.982-12.982 5.583-3.19 3.46-4.9 8.132-4.775 12.953-14.984 1.08-26.848 13.616-26.848 28.873 0 15.961 12.987 28.948 28.949 28.948 15.962 0 28.946-12.987 28.946-28.948C80.61 45.329 70.535 33.58 57.226 30.979zM55.878 18.984c2.918-3.165 6.981-4.908 11.442-4.908 0.168 0 0.335 0.002 0.505 0.007-1.692 7.479-5.07 14.391-16.171 16.203C51.588 26.07 53.096 22.002 55.878 18.984zM51.664 86.242c-14.807 0-26.853-12.046-26.853-26.853 0-14.147 10.997-25.773 24.892-26.782l0.005 0.058 0.819-0.104c0.377-0.016 0.755-0.026 1.137-0.026 14.806 0 26.851 12.046 26.851 26.853C78.515 74.196 66.47 86.242 51.664 86.242z" fill="#c9efc7" data-fill-palette-color="accent"></path><path d="M97.644 47.85c0 0 2.455-22.73 2.806-30.34 0.142-3.05-2.483-5.536-5.536-5.536-2.313 0-4.143 1.499-5.119 3.451-1.108 2.213-5.644 9.921-6.415 18.247-0.636 6.86 1.729 12.024 2.756 13.896l-2.83 33.86c0 4.727 3.845 8.572 8.571 8.572 4.729 0 8.573-3.846 8.573-8.572L97.644 47.85zM91.876 87.89c-3.553 0-6.446-2.887-6.461-6.44l2.866-34.242c0 0-3.6-6.503-2.802-13.341 0.973-8.333 6.387-17.889 6.387-17.889 0.563-1.117 1.712-1.894 3.047-1.894 1.881 0 3.41 1.524 3.424 3.401l-2.813 30.346 2.814 33.618C98.325 85.003 95.432 87.89 91.876 87.89z" fill="#c9efc7" data-fill-palette-color="accent"></path><path d="M17.104 46.875c3.502-2.039 5.666-5.721 5.666-9.814l-2.007-21.979c0-1.592-1.294-2.887-2.885-2.887-0.728 0-1.385 0.279-1.893 0.725-0.605-0.584-1.424-0.948-2.33-0.948-0.895 0-1.704 0.356-2.306 0.928-0.603-0.572-1.412-0.928-2.306-0.928-0.885 0-1.686 0.351-2.288 0.912-0.501-0.422-1.14-0.688-1.847-0.688-1.592 0-2.887 1.295-2.887 2.887L0 37.061c0 4.093 2.164 7.775 5.666 9.814L2.813 81.021c0 4.727 3.844 8.571 8.572 8.571 4.727 0 8.572-3.845 8.572-8.571L17.104 46.875zM11.385 87.482c-3.555 0-6.448-2.887-6.461-6.438l2.942-35.45-0.627-0.235c-3.134-1.569-5.087-4.708-5.123-8.205l2.029-22.133c0.032-0.399 0.357-0.71 0.764-0.717 0.797-0.014 0.799 0.777 0.799 0.777-0.006 0.084 0.006 21.979 0.006 21.979h2.11V15.175c0.081-0.613 0.585-1.094 1.22-1.094 0.645 0 1.159 0.498 1.225 1.126l0.061 21.856 2.11-0.006-0.036-21.725h0.001c0-0.001 0-0.002 0-0.003 0.002-0.689 0.562-1.249 1.251-1.249 0.69 0 1.251 0.562 1.251 1.252l0.038 21.728h2.11l0.045-21.979c0-0.429 0.349-0.777 0.777-0.777 0.407 0 0.731 0.318 0.762 0.718l2.013 22.132c-0.035 3.497-1.988 6.636-5.123 8.205l-0.643 0.351 2.958 35.334C17.833 84.596 14.939 87.482 11.385 87.482z" fill="#c9efc7" data-fill-palette-color="accent"></path></svg></g></svg></g></svg></g><defs></defs></svg><rect width="395.52" height="140.52333723658714" fill="none" stroke="none" visibility="hidden"></rect></g></svg></g></svg>