<svg xmlns="http://www.w3.org/2000/svg" version="1.1" xmlns:xlink="http://www.w3.org/1999/xlink" xmlns:svgjs="http://svgjs.dev/svgjs" width="1000" height="1000" viewBox="0 0 1000 1000"><rect width="1000" height="1000" fill="#000000"></rect><g transform="matrix(0.7,0,0,0.7,149.57576828053806,448.3718358108281)"><svg viewBox="0 0 396 59" data-background-color="#ffffff" preserveAspectRatio="xMidYMid meet" height="148" width="1000" xmlns="http://www.w3.org/2000/svg" xmlns:xlink="http://www.w3.org/1999/xlink"><g id="tight-bounds" transform="matrix(1,0,0,1,0.23999396386579974,-0.09785890100789629)"><svg viewBox="0 0 395.52 59.19571906354515" height="59.19571906354515" width="395.52"><g><svg viewBox="0 0 395.52 59.19571906354515" height="59.19571906354515" width="395.52"><g><svg viewBox="0 0 395.52 59.19571906354515" height="59.19571906354515" width="395.52"><g id="textblocktransform"><svg viewBox="0 0 395.52 59.19571906354515" height="59.19571906354515" width="395.52" id="textblock"><g><svg viewBox="0 0 395.52 59.19571906354515" height="59.19571906354515" width="395.52"><g transform="matrix(1,0,0,1,0,0)"><svg width="395.52" viewBox="0.30000001192092896 -35.29999923706055 239.17999267578125 35.79999923706055" height="59.19571906354515" data-palette-color="#000000"><path d="M0.3-0.25L0.3-0.25 6.5-34.6Q6.55-34.8 6.75-34.8L6.75-34.8 14-34.8Q14.2-34.8 14.25-34.6L14.25-34.6 20.2-0.25Q20.25 0 20 0L20 0 14.45 0Q14.25 0 14.2-0.25L14.2-0.25 13.65-3.9 6.85-3.9 6.3-0.25Q6.25 0 6.05 0L6.05 0 0.5 0Q0.3 0 0.3-0.25ZM10.1-23.3L7.85-9.25 12.65-9.25 10.6-23.3 10.3-25.15 10.1-23.3ZM28.8 0L23.8 0Q23.4 0 23.4-0.35L23.4-0.35 23.35-34.4Q23.35-34.8 23.75-34.8L23.75-34.8 28.25-34.8 36.7-15.1 36.45-34.4Q36.45-34.8 36.9-34.8L36.9-34.8 41.85-34.8Q42.15-34.8 42.15-34.4L42.15-34.4 42.2-0.3Q42.2 0 41.95 0L41.95 0 37.55 0 28.9-18.4 29.25-0.4Q29.25 0 28.8 0L28.8 0ZM55.75-0.05L46.8 0Q46.55 0 46.55-0.25L46.55-0.25 46.65-34.6Q46.65-34.8 46.84-34.8L46.84-34.8 56.2-34.85Q58.95-34.9 61.22-33.55 63.5-32.2 64.84-29.93 66.2-27.65 66.2-24.9L66.2-24.9 66.2-10.55Q66.2-7.65 64.8-5.28 63.4-2.9 61.05-1.5 58.7-0.1 55.75-0.05L55.75-0.05ZM52.7-28.8L52.65-6.15 55.75-6.15Q57.59-6.15 58.87-7.45 60.15-8.75 60.15-10.55L60.15-10.55 60.15-24.95Q60.15-26.55 58.97-27.73 57.8-28.9 56.2-28.85L56.2-28.85 52.7-28.8ZM75.99 0L70.34 0Q70.14 0 70.14-0.25L70.14-0.25 70.24-34.6Q70.24-34.8 70.44-34.8L70.44-34.8 80.54-34.8Q83.24-34.8 85.52-33.48 87.79-32.15 89.14-29.93 90.49-27.7 90.49-24.9L90.49-24.9Q90.49-23.05 89.94-21.58 89.39-20.1 88.64-19.07 87.89-18.05 87.29-17.55L87.29-17.55Q89.99-14.55 89.99-10.5L89.99-10.5 90.04-0.25Q90.04 0 89.79 0L89.79 0 84.14 0Q83.94 0 83.94-0.15L83.94-0.15 83.94-10.5Q83.94-12.3 82.67-13.63 81.39-14.95 79.54-14.95L79.54-14.95 76.24-14.95 76.19-0.25Q76.19 0 75.99 0L75.99 0ZM76.24-28.8L76.24-20.95 80.54-20.95Q82.09-20.95 83.29-22.1 84.49-23.25 84.49-24.9L84.49-24.9Q84.49-26.5 83.32-27.65 82.14-28.8 80.54-28.8L80.54-28.8 76.24-28.8ZM110.59 0L94.44 0Q94.24 0 94.24-0.25L94.24-0.25 94.29-34.6Q94.29-34.8 94.49-34.8L94.49-34.8 110.54-34.8Q110.74-34.8 110.74-34.55L110.74-34.55 110.74-28.95Q110.74-28.75 110.54-28.75L110.54-28.75 100.29-28.75 100.29-20.95 110.54-20.95Q110.74-20.95 110.74-20.75L110.74-20.75 110.79-15.1Q110.79-14.9 110.59-14.9L110.59-14.9 100.29-14.9 100.29-6.15 110.59-6.15Q110.79-6.15 110.79-5.9L110.79-5.9 110.79-0.2Q110.79 0 110.59 0L110.59 0ZM125.89 0L119.84 0Q119.64 0 119.59-0.25L119.59-0.25 113.69-34.6Q113.64-34.8 113.84-34.8L113.84-34.8 119.44-34.8Q119.64-34.8 119.69-34.6L119.69-34.6 122.89-12 126.19-34.6Q126.24-34.8 126.49-34.8L126.49-34.8 130.99-34.8Q131.19-34.8 131.24-34.6L131.24-34.6 134.49-12 137.74-34.6Q137.79-34.8 137.99-34.8L137.99-34.8 143.54-34.8Q143.79-34.8 143.74-34.6L143.74-34.6 137.79-0.25Q137.74-0.15 137.64-0.08 137.54 0 137.54 0L137.54 0 131.49 0Q131.34 0 131.24-0.25L131.24-0.25 128.69-18.2 126.14-0.25Q126.09 0 125.89 0L125.89 0ZM162.58 0.5L162.58 0.5Q159.88 0.5 157.66-0.88 155.43-2.25 154.11-4.53 152.78-6.8 152.78-9.55L152.78-9.55 152.78-11.85Q152.78-12.1 153.03-12.1L153.03-12.1 158.63-12.1Q158.83-12.1 158.83-11.85L158.83-11.85 158.83-9.55Q158.83-7.9 159.93-6.73 161.03-5.55 162.58-5.55L162.58-5.55Q164.13-5.55 165.23-6.75 166.33-7.95 166.33-9.55L166.33-9.55Q166.33-11.4 163.93-12.75L163.93-12.75Q163.13-13.2 161.43-14.15 159.73-15.1 158.23-15.95L158.23-15.95Q155.48-17.55 154.16-19.98 152.83-22.4 152.83-25.45L152.83-25.45Q152.83-28.25 154.18-30.48 155.53-32.7 157.76-34 159.98-35.3 162.58-35.3L162.58-35.3Q165.23-35.3 167.46-33.98 169.68-32.65 171.01-30.43 172.33-28.2 172.33-25.45L172.33-25.45 172.33-21.35Q172.33-21.15 172.13-21.15L172.13-21.15 166.53-21.15Q166.33-21.15 166.33-21.35L166.33-21.35 166.28-25.45Q166.28-27.2 165.18-28.3 164.08-29.4 162.58-29.4L162.58-29.4Q161.03-29.4 159.93-28.23 158.83-27.05 158.83-25.45L158.83-25.45Q158.83-23.8 159.53-22.7 160.23-21.6 162.08-20.6L162.08-20.6Q162.33-20.45 163.06-20.08 163.78-19.7 164.63-19.23 165.48-18.75 166.16-18.4 166.83-18.05 166.98-17.95L166.98-17.95Q169.48-16.55 170.93-14.53 172.38-12.5 172.38-9.55L172.38-9.55Q172.38-6.7 171.06-4.42 169.73-2.15 167.51-0.83 165.28 0.5 162.58 0.5ZM181.73 0L176.08 0Q175.88 0 175.88-0.25L175.88-0.25 175.93-34.6Q175.93-34.8 176.18-34.8L176.18-34.8 181.73-34.8Q181.98-34.8 181.98-34.6L181.98-34.6 181.93-21 189.43-21 189.43-34.6Q189.43-34.8 189.63-34.8L189.63-34.8 195.18-34.8Q195.43-34.8 195.43-34.6L195.43-34.6 195.53-0.25Q195.53 0 195.28 0L195.28 0 189.68 0Q189.43 0 189.43-0.25L189.43-0.25 189.43-14.95 181.93-14.95 181.93-0.25Q181.93 0 181.73 0L181.73 0ZM215.98 0L199.83 0Q199.63 0 199.63-0.25L199.63-0.25 199.68-34.6Q199.68-34.8 199.88-34.8L199.88-34.8 215.93-34.8Q216.13-34.8 216.13-34.55L216.13-34.55 216.13-28.95Q216.13-28.75 215.93-28.75L215.93-28.75 205.68-28.75 205.68-20.95 215.93-20.95Q216.13-20.95 216.13-20.75L216.13-20.75 216.18-15.1Q216.18-14.9 215.98-14.9L215.98-14.9 205.68-14.9 205.68-6.15 215.98-6.15Q216.18-6.15 216.18-5.9L216.18-5.9 216.18-0.2Q216.18 0 215.98 0L215.98 0ZM226.08 0L221.08 0Q220.68 0 220.68-0.35L220.68-0.35 220.63-34.4Q220.63-34.8 221.03-34.8L221.03-34.8 225.53-34.8 233.98-15.1 233.73-34.4Q233.73-34.8 234.18-34.8L234.18-34.8 239.13-34.8Q239.43-34.8 239.43-34.4L239.43-34.4 239.48-0.3Q239.48 0 239.23 0L239.23 0 234.83 0 226.18-18.4 226.53-0.4Q226.53 0 226.08 0L226.08 0Z" opacity="1" transform="matrix(1,0,0,1,0,0)" fill="#ffffff" class="wordmark-text-0" data-fill-palette-color="primary" id="text-0"></path></svg></g></svg></g></svg></g></svg></g></svg></g><defs></defs></svg><rect width="395.52" height="59.19571906354515" fill="none" stroke="none" visibility="hidden"></rect></g></svg></g></svg>