<svg xmlns="http://www.w3.org/2000/svg" version="1.1" xmlns:xlink="http://www.w3.org/1999/xlink" xmlns:svgjs="http://svgjs.dev/svgjs" width="1000" height="1000" viewBox="0 0 1000 1000"><rect width="1000" height="1000" fill="#000000"></rect><g transform="matrix(0.7,0,0,0.7,150.0000000000001,106.25)"><svg viewBox="0 0 320 360" data-background-color="#ffffff" preserveAspectRatio="xMidYMid meet" height="1125" width="1000" xmlns="http://www.w3.org/2000/svg" xmlns:xlink="http://www.w3.org/1999/xlink"><g id="tight-bounds" transform="matrix(1,0,0,1,0,0)"><svg viewBox="0 0 320 360" height="360" width="320"><g><svg></svg></g><g><svg viewBox="0 0 320 360" height="360" width="320"><g><path xmlns="http://www.w3.org/2000/svg" d="M20.961 227.22l3.726 4.658-1.863-6.056c-0.466-2.795-3.726 0.466-1.863 1.398M25.153 224.425c1.397 2.329 2.795 4.658 2.795 6.987 0 3.261 2.795 4.658 5.123 5.589-3.261-3.726-5.124-13.974-7.918-12.576M204.017 26.929c7.918 0 15.371-0.932 23.756 0.931 20.495 5.124 37.729 15.371 49.374 29.811l32.606 52.169c1.397 13.042 4.192 27.482 3.726 43.319 3.261 0 2.795-4.658 6.521-5.59-3.726 9.316-5.59 20.961-6.521 34.469-2.329-7.453 0-18.632 0.466-24.687-3.261 5.124-5.124 1.397-5.124-0.932 0.466-3.726-1.397-3.261-2.795-4.658-5.124-4.658-8.384-9.782-12.11-17.7 2.329-6.055 2.795-14.905-4.658-19.563-2.329-1.397-5.124-3.726-6.521-7.453-1.863-5.124-5.124-11.179-4.193-19.097 0.466-2.329-6.987 5.124-11.179 1.863-18.166-12.576-36.332-27.016-58.224-39.127-11.645 0-20.029-4.192-24.221-9.316-3.726-4.658-0.932-10.713 4.658-11.179 3.261 0 6.987-0.932 9.782 0.932 0.466-1.863 2.329-4.192 4.657-4.192M157.904 16.215l0.932 0.466c4.658 0.932 6.987 7.453 12.11 5.124 0 3.261 0.466 6.521-0.466 8.85-1.397 3.726-5.59 3.726-8.85 3.726-31.208-1.863-49.374 11.179-68.471 22.358-5.124 3.261-10.713 5.59-14.906 9.782-20.029 18.632-41.921 35.866-47.045 70.335l-4.192 38.195c-0.466 4.192-5.124 8.384-4.192 13.508l3.26 22.824c-3.261-3.261-5.124 0.932-4.192 2.795 0.466 1.397 2.329 6.055 5.124 1.863 3.726 6.987 7.453 20.495 12.576 26.55 15.837 18.632 36.332 35.4 53.101 52.169 4.192-0.932 7.453-0.932 8.384-3.727 1.397 2.795-1.397 5.59-3.726 6.056 7.453 4.658 15.837 8.85 27.016 9.781 14.44 0.932 27.948 3.261 40.524 6.522 6.521-1.863 13.042-2.795 20.029-3.261 2.329 0 3.726-3.726 6.521-4.658l0.466-4.658c2.795 4.192 2.329-1.397 0.466-4.192 3.261 2.795 4.192 5.124 5.589 6.987 0-1.397 3.726-6.521 3.727-0.466l0.931-6.055c1.397-0.932 1.863 5.124 3.261 0.931 1.397-4.192 4.192-0.932 6.987-2.329-0.932 1.863-0.466 5.59 2.794 3.261l3.727-3.261c2.329 5.59 6.055 3.261 7.918 2.329 20.495-13.042 40.99-28.413 60.553-43.784l-0.466 6.055 2.329-7.453c2.329 2.329 4.192 0.466 5.124-0.931 2.795-4.658 6.521-9.316 12.577-13.508-7.453 20.029-16.303 35.866-27.482 48.908l-4.658 5.59c0 3.261-0.932 7.453-4.658 7.918-1.863 0.466-5.59-0.932-8.384 1.863-1.397 1.863 3.261 5.59-0.466 2.795-3.261-2.329-6.521 0-10.248 0.932-2.795 0.932 1.863 3.726 2.795 5.589 0.932 1.863 1.863 3.726 1.398 6.056l-5.124-5.59c-6.055 3.261-9.782 9.316-14.906 13.974-2.329 1.863-1.397 5.124-1.397 7.918-3.261 0-6.987-0.932-8.85 0.932-1.397 1.863-0.932 4.658-0.932 7.453-4.658-0.466-5.124-7.453-9.315-6.056-4.192 0.932-8.85 1.397-12.577 3.727 2.795 5.59-4.658 2.329-3.726 3.26-6.987-4.192-13.042-7.453-20.495-4.658-15.837-5.124-35.4-2.795-49.84-0.931 0-2.329 0.466-4.658-0.466-5.124-0.932 2.329-3.726 1.397-3.26 1.397-8.85-6.055-17.7-9.782-27.016-14.905-8.384 0.932-16.303-3.261-18.632-5.59-6.521-6.055-13.974-2.795-20.029-4.192-13.042-3.261-17.7-16.769-19.098-26.084-0.932-4.658-4.658-6.521-6.055-6.056-6.055-19.563-15.371-37.263-22.824-55.429-1.863-4.658-1.397-9.316-1.397-14.44 2.329 0.932 4.658 0.466 4.192-2.794-2.329-15.371-7.918-27.016-13.974-38.195 3.261-15.837 3.726-34.469 11.179-48.443 6.521-12.576 18.632-19.098 27.016-29.811 2.795-3.726 2.795-8.85 5.59-12.11 9.316-9.316 18.632-19.098 28.879-27.482 4.658-3.726 10.247 0 17.234-1.397 2.329-8.384 11.645-15.837 20.495-13.508 3.726 0.932 11.179-8.85 13.508-9.782 3.726-1.397 1.863 3.726 1.863 6.987 8.85-6.987 20.961-10.713 32.14-14.906" fill="#ffffff" fill-rule="nonzero" stroke="none" stroke-width="1" stroke-linecap="butt" stroke-linejoin="miter" stroke-miterlimit="10" stroke-dasharray="" stroke-dashoffset="0" font-family="none" font-weight="none" font-size="none" text-anchor="none" style="mix-blend-mode: normal" data-fill-palette-color="tertiary"></path></g><g transform="matrix(1,0,0,1,64,145.4260429835651)"><svg viewBox="0 0 192 69.14791403286978" height="69.14791403286978" width="192"><g><svg viewBox="0 0 192 69.14791403286978" height="69.14791403286978" width="192"><g><svg viewBox="0 0 192 69.14791403286978" height="69.14791403286978" width="192"><g><svg viewBox="0 0 192 69.14791403286978" height="69.14791403286978" width="192"><g id="textblocktransform"><svg viewBox="0 0 192 69.14791403286978" height="69.14791403286978" width="192" id="textblock"><g><svg viewBox="0 0 192 69.14791403286978" height="69.14791403286978" width="192"><g transform="matrix(1,0,0,1,0,0)"><svg width="192" viewBox="3.369999885559082 -38.15999984741211 154.48001098632812 55.63999938964844" height="69.14791403286978" data-palette-color="#4790fc"><path d="M9.35-17.77L9.35-2.73Q9.35-0.63 9.45 0L9.45 0 3.37 0 3.37-25.51 9.35-25.51 9.35-23.63Q11.43-26 13.71-26 15.99-26 17.31-25.44L17.31-25.44 16.87-18.87 16.77-18.8Q15.92-20.31 13.23-20.31L13.23-20.31Q12.21-20.31 11.15-19.62 10.08-18.92 9.35-17.77L9.35-17.77ZM37.13-1.51L37.13-1.51Q33.66 0.37 30.86 0.37 28.05 0.37 26.05-0.16 24.05-0.68 22.65-1.71L22.65-1.71Q19.82-3.78 19.82-7.71L19.82-7.71Q19.82-11.23 23.29-13.57L23.29-13.57Q27.05-16.11 33.49-16.11L33.49-16.11 34.47-16.09Q34.76-16.06 35.13-16.05 35.5-16.04 35.79-15.99L35.79-15.99Q35.59-19.9 32.42-20.56L32.42-20.56Q31.37-20.78 30.19-20.78 29-20.78 27.87-20.57 26.73-20.36 25.66-20.02L25.66-20.02Q23.29-19.26 22.26-18.29L22.26-18.29 22.19-18.33 21.46-23.73Q25.78-26 30.91-26L30.91-26Q38.86-26 41.09-20.26L41.09-20.26Q41.79-18.43 41.79-16.14L41.79-16.14 41.79-7.3Q41.79-4.47 43.8-3.44L43.8-3.44 39.38 0.61Q37.99-0.12 37.13-1.51ZM35.81-6.49L35.81-11.6Q35.15-11.72 34.45-11.72L34.45-11.72 33.47-11.72Q28.07-11.72 26.61-9.33L26.61-9.33Q26.17-8.62 26.17-7.84 26.17-7.06 26.45-6.46 26.73-5.86 27.39-5.47L27.39-5.47Q28.66-4.74 31.16-4.74 33.66-4.74 35.84-5.93L35.84-5.93Q35.81-6.2 35.81-6.49L35.81-6.49ZM54.12-28.83L48.63-32.79Q50.58-35.84 52.7-38.16L52.7-38.16 57.95-34.03Q56.9-32.74 56-31.49L56-31.49Q56-31.49 54.12-28.83L54.12-28.83ZM55.05-25.51L55.05-2.73Q55.05-0.63 55.15 0L55.15 0 48.95 0 48.95-25.51 55.05-25.51ZM68.35-17.07L68.35-3.13Q68.35-0.98 68.55 0L68.55 0 62.42 0 62.42-25.51 68.35-25.51 68.35-23.34Q71.57-26 75.24-26L75.24-26Q79.24-26 81.63-23.28 84.03-20.56 84.03-16.11L84.03-16.11 84.03-6.4Q84.03-2.27 84.15-1.44 84.27-0.61 84.48-0.37 84.68-0.12 84.83 0.07L84.83 0.07 84.78 0.17Q82.81 0 81.9 0L81.9 0 80.19 0Q79.41 0 78.09 0.07L78.09 0.07 78.09-13.23Q78.09-20.39 73.75-20.39L73.75-20.39Q70.52-20.39 68.35-17.07L68.35-17.07ZM95.86-28.83L90.37-32.79Q92.32-35.84 94.45-38.16L94.45-38.16 99.7-34.03Q98.65-32.74 97.74-31.49L97.74-31.49Q97.74-31.49 95.86-28.83L95.86-28.83ZM96.79-25.51L96.79-2.73Q96.79-0.63 96.89 0L96.89 0 90.69 0 90.69-25.51 96.79-25.51ZM110.09-17.07L110.09-3.13Q110.09-0.98 110.29 0L110.29 0 104.16 0 104.16-25.51 110.09-25.51 110.09-23.34Q113.32-26 116.98-26L116.98-26Q120.98-26 123.38-23.28 125.77-20.56 125.77-16.11L125.77-16.11 125.77-6.4Q125.77-2.27 125.89-1.44 126.01-0.61 126.22-0.37 126.43-0.12 126.57 0.07L126.57 0.07 126.53 0.17Q124.55 0 123.64 0L123.64 0 121.94 0Q121.15 0 119.84 0.07L119.84 0.07 119.84-13.23Q119.84-20.39 115.49-20.39L115.49-20.39Q112.27-20.39 110.09-17.07L110.09-17.07ZM139.46-6.79L139.46-6.79Q138.56-5.59 138.56-4.9 138.56-4.2 138.78-3.82 139-3.44 139.73-3.1L139.73-3.1Q141.34-2.34 145.03-1.77 148.72-1.2 150.8-0.34 152.89 0.51 154.18 1.76L154.18 1.76Q156.6 4.13 156.6 8.47 156.6 12.82 153.55 15.15 150.5 17.48 144.49 17.48L144.49 17.48Q138.44 17.48 134.73 14.84L134.73 14.84Q131.02 12.21 130.92 7.84L130.92 7.84Q130.77 2.76 134.9 0.49L134.9 0.49Q133.77-0.44 133.4-1.7 133.02-2.95 133.02-4.57L133.02-4.57Q133.02-7.28 135.39-9.16L135.39-9.16Q132.63-11.77 132.63-15.65L132.63-15.65Q132.63-20 135.75-22.92L135.75-22.92Q139.05-26 144.3-26L144.3-26Q147.06-26 149.47-24.98L149.47-24.98Q152.65-26.32 154.14-27.33 155.62-28.34 156.04-28.81L156.04-28.81 156.19-28.78Q156.41-28.2 156.7-27.12L156.7-27.12 157.14-25.37Q157.72-23.19 157.85-22.39L157.85-22.39Q156.77-21.22 154.06-20.73L154.06-20.73Q155.11-18.7 155.11-16.43 155.11-14.16 154.33-12.32 153.55-10.47 152.11-9.08L152.11-9.08Q148.91-6.08 143.95-6.08L143.95-6.08Q141.54-6.08 139.46-6.79ZM138.83-17.77L138.83-17.77Q138.49-16.89 138.49-15.99 138.49-15.09 138.86-14.26 139.24-13.43 139.98-12.77L139.98-12.77Q141.61-11.3 144.25-11.3L144.25-11.3Q146.25-11.3 147.71-12.65L147.71-12.65Q149.25-14.11 149.25-16.17 149.25-18.24 147.86-19.51 146.47-20.78 144.03-20.78L144.03-20.78Q140-20.78 138.83-17.77ZM144.81 12.3L144.81 12.3Q150.82 12.3 150.82 8.11L150.82 8.11Q150.82 6.1 148.86 4.88L148.86 4.88Q146.66 3.49 141.32 2.71L141.32 2.71 140.05 2.49Q138.44 3.34 137.68 4.69 136.92 6.03 136.94 7.24 136.95 8.45 137.51 9.33 138.07 10.21 139.07 10.86L139.07 10.86Q141.29 12.3 144.81 12.3Z" opacity="1" transform="matrix(1,0,0,1,0,0)" fill="#ffffff" class="wordmark-text-0" data-fill-palette-color="primary" id="text-0"></path></svg></g></svg></g></svg></g></svg></g><g></g></svg></g></svg></g></svg></g></svg></g><defs></defs></svg><rect width="320" height="360" fill="none" stroke="none" visibility="hidden"></rect></g></svg></g></svg>